<svg xmlns="http://www.w3.org/2000/svg" viewBox="0 0 820 220" role="img" aria-labelledby="title desc">
  <title id="title">Logo Amanda G.</title>
  <desc id="desc">Logo horizontal com torre estilizada à esquerda e texto Amanda G. à direita.</desc>

  <defs>
    <style>
      .preto { fill: #111111; stroke: #111111; }
      .rosa { fill: rgb(245,122,138); stroke: rgb(245,122,138); }
      .linha { fill: none; stroke: #111111; stroke-width: 3.2; stroke-linecap: round; stroke-linejoin: round; }
      .pontilhado { fill: none; stroke: #111111; stroke-width: 2.2; stroke-linecap: round; stroke-dasharray: 3 8; opacity: .9; }
      .nome { font-family: Georgia, 'Times New Roman', serif; font-size: 78px; dominant-baseline: middle; }
    </style>
  </defs>

  <g transform="translate(35,18)">
    <path class="pontilhado" d="M86 92 C120 38, 176 40, 212 88" />
    <path class="linha" d="M140 12 L140 40" />
    <path class="linha" d="M131 18 L149 18" />
    <circle cx="140" cy="45" r="4" class="preto"/>

    <path class="linha" d="M92 78 C92 53,108 31,140 22 C172 31,188 53,188 78" />
    <path class="linha" d="M100 76 L180 76" />
    <path class="linha" d="M102 78 L102 118" />
    <path class="linha" d="M178 78 L178 118" />
    <path class="linha" d="M114 88 L114 110" />
    <path class="linha" d="M166 88 L166 110" />
    <circle cx="117" cy="94" r="12" class="linha"/>
    <circle cx="163" cy="94" r="12" class="linha"/>
    <path class="linha" d="M117 94 L117 86 M117 94 L123 100" />
    <path class="linha" d="M163 94 L163 86 M163 94 L169 100" />

    <path class="linha" d="M100 118 L180 118" />
    <path class="linha" d="M94 126 L186 126" />
    <path class="linha" d="M90 132 L190 132" />

    <path class="linha" d="M108 132 L108 194" />
    <path class="linha" d="M172 132 L172 194" />
    <path class="linha" d="M118 142 Q128 132 138 142 L138 194" />
    <path class="linha" d="M142 142 Q152 132 162 142 L162 194" />
    <path class="linha" d="M118 194 L162 194" />

    <path class="linha" d="M78 198 C110 186,170 186,202 198" />

    <path class="linha" d="M205 60 C194 64,188 78,193 90 C198 102,211 107,224 103 C214 101,206 92,205 81 C204 72,206 66,212 61 C210 60,207 60,205 60 Z"/>
    <path class="linha" d="M70 72 L70 84 M64 78 L76 78" />
    <path class="linha" d="M220 84 L220 96 M214 90 L226 90" />
    <path class="linha" d="M54 112 L54 124 M48 118 L60 118" />
  </g>

  <g transform="translate(265,0)">
    <text x="0" y="138" class="nome preto">A</text>
    <text x="48" y="138" class="nome rosa">manda</text>
    <text x="340" y="138" class="nome preto">G</text>
    <text x="410" y="138" class="nome rosa">.</text>
  </g>
</svg>
